<?xml version="1.0" ?><!DOCTYPE svg  PUBLIC '-//W3C//DTD SVG 1.1//EN'  'http://www.w3.org/Graphics/SVG/1.1/DTD/svg11.dtd'><svg enable-background="new 0 0 128 128" height="128px" id="Layer_1" version="1.1" viewBox="0 0 128 128" width="128px" xml:space="preserve" xmlns="http://www.w3.org/2000/svg" xmlns:xlink="http://www.w3.org/1999/xlink"><path d="M87.392,64.486c0,10.931-8.855,19.799-19.791,19.799H60.39c-10.921,0-19.781-8.868-19.781-19.799V20.789  C40.608,9.859,49.468,1,60.39,1h7.211c10.936,0,19.791,8.859,19.791,19.789V64.486z" fill="#000"/><path d="M99.945,38.537c-3.354,0-6.072,2.719-6.072,6.072v25.264c-0.002,2.76-0.627,5.358-1.789,7.783  c-1.739,3.627-4.734,6.856-8.642,9.177c-3.904,2.32-8.688,3.716-13.907,3.715H58.457c-6.945,0.004-13.133-2.486-17.486-6.319  c-2.177-1.915-3.891-4.154-5.055-6.574c-1.163-2.424-1.788-5.022-1.79-7.781V44.609c0-3.354-2.719-6.072-6.072-6.072  s-6.072,2.719-6.072,6.072v25.264c-0.002,4.629,1.075,9.068,2.99,13.045c2.875,5.973,7.589,10.909,13.387,14.355  c5.232,3.108,11.377,5.002,17.946,5.347v18.875c0,3.044,2.47,5.505,5.518,5.505h4.36c3.036,0,5.52-2.461,5.52-5.505v-18.866  c9.001-0.476,17.191-3.866,23.353-9.282c3.324-2.925,6.063-6.45,7.976-10.431c1.914-3.977,2.989-8.415,2.987-13.043V44.609  C106.018,41.255,103.299,38.537,99.945,38.537z" fill="#000"/></svg>